<svg width="108" height="96" viewBox="0 0 108 96" fill="none" xmlns="http://www.w3.org/2000/svg">
<path d="M40.9062 13.5V59H32.2812L12.9375 27.4375V59H4.34375V13.5H12.9375L32.3438 45.0938V13.5H40.9062Z" fill="white"/>
<path d="M43.0938 34.5V80H51.7188L71.0625 48.4375V80H79.6562V34.5H71.0625L51.6562 66.0938V34.5H43.0938Z" fill="#B10009"/>
<path d="M48.9082 33.1953C48.1074 33.1953 47.388 33.0651 46.75 32.8047C46.112 32.5443 45.5684 32.1829 45.1191 31.7207C44.6764 31.252 44.3346 30.7083 44.0938 30.0898C43.8594 29.4648 43.7422 28.7943 43.7422 28.0781V27.6875C43.7422 26.8737 43.8594 26.1348 44.0938 25.4707C44.3281 24.8001 44.6602 24.224 45.0898 23.7422C45.5195 23.2604 46.0339 22.8893 46.6328 22.6289C47.2318 22.3685 47.8926 22.2383 48.6152 22.2383C49.3639 22.2383 50.0247 22.3652 50.5977 22.6191C51.1706 22.8665 51.6491 23.2181 52.0332 23.6738C52.4173 24.1296 52.707 24.6764 52.9023 25.3145C53.0977 25.946 53.1953 26.6458 53.1953 27.4141V28.498H44.9141V26.7207H50.6562V26.5254C50.6432 26.1152 50.5651 25.7409 50.4219 25.4023C50.2786 25.0573 50.0573 24.7839 49.7578 24.582C49.4583 24.3737 49.071 24.2695 48.5957 24.2695C48.2116 24.2695 47.8763 24.3542 47.5898 24.5234C47.3099 24.6862 47.0755 24.9206 46.8867 25.2266C46.7044 25.526 46.5677 25.8841 46.4766 26.3008C46.3854 26.7174 46.3398 27.1797 46.3398 27.6875V28.0781C46.3398 28.5208 46.3984 28.931 46.5156 29.3086C46.6393 29.6862 46.8184 30.015 47.0527 30.2949C47.2936 30.5684 47.5801 30.7832 47.9121 30.9395C48.2507 31.0892 48.6348 31.1641 49.0645 31.1641C49.6048 31.1641 50.0931 31.0599 50.5293 30.8516C50.972 30.6367 51.3561 30.321 51.6816 29.9043L52.9805 31.252C52.7591 31.5775 52.4596 31.89 52.082 32.1895C51.7109 32.4889 51.2617 32.7331 50.7344 32.9219C50.207 33.1042 49.5983 33.1953 48.9082 33.1953ZM57.8633 30.4609L60.1777 22.4336H61.8184L61.3301 25.207L58.9961 33H57.5801L57.8633 30.4609ZM56.584 22.4336L58.3223 30.4805L58.4785 33H56.8477L54.0742 22.4336H56.584ZM63.9668 30.3633L65.666 22.4336H68.166L65.4121 33H63.7812L63.9668 30.3633ZM62.0723 22.4336L64.3672 30.3828L64.6699 33H63.2539L60.9004 25.207L60.4219 22.4336H62.0723ZM75.5 30.1094C75.5 29.888 75.4414 29.6895 75.3242 29.5137C75.207 29.3379 74.9857 29.1784 74.6602 29.0352C74.3411 28.8854 73.8724 28.7454 73.2539 28.6152C72.707 28.498 72.2025 28.3516 71.7402 28.1758C71.278 28 70.8809 27.7884 70.5488 27.541C70.2168 27.2871 69.9564 26.9909 69.7676 26.6523C69.5853 26.3073 69.4941 25.9102 69.4941 25.4609C69.4941 25.0247 69.5885 24.6146 69.7773 24.2305C69.9661 23.8398 70.2396 23.498 70.5977 23.2051C70.9557 22.9056 71.3919 22.6712 71.9062 22.502C72.4206 22.3262 73 22.2383 73.6445 22.2383C74.543 22.2383 75.3145 22.3848 75.959 22.6777C76.61 22.9707 77.1081 23.3743 77.4531 23.8887C77.7982 24.3965 77.9707 24.9694 77.9707 25.6074H75.3926C75.3926 25.3275 75.3275 25.0736 75.1973 24.8457C75.0736 24.6178 74.8815 24.4355 74.6211 24.2988C74.3607 24.1556 74.0319 24.084 73.6348 24.084C73.2767 24.084 72.974 24.1426 72.7266 24.2598C72.4857 24.377 72.3034 24.5299 72.1797 24.7188C72.056 24.9076 71.9941 25.1159 71.9941 25.3438C71.9941 25.513 72.0267 25.666 72.0918 25.8027C72.1634 25.9329 72.2773 26.0534 72.4336 26.1641C72.5898 26.2747 72.8014 26.3757 73.0684 26.4668C73.3418 26.5579 73.6771 26.6458 74.0742 26.7305C74.862 26.8867 75.5488 27.0951 76.1348 27.3555C76.7272 27.6094 77.1895 27.9479 77.5215 28.3711C77.8535 28.7943 78.0195 29.3346 78.0195 29.9922C78.0195 30.4609 77.9186 30.8906 77.7168 31.2812C77.515 31.6654 77.222 32.0007 76.8379 32.2871C76.4538 32.5736 75.9948 32.7982 75.4609 32.9609C74.9271 33.1172 74.3249 33.1953 73.6543 33.1953C72.6842 33.1953 71.8639 33.0228 71.1934 32.6777C70.5228 32.3262 70.015 31.8835 69.6699 31.3496C69.3249 30.8092 69.1523 30.2493 69.1523 29.6699H71.623C71.6426 30.0801 71.7533 30.4089 71.9551 30.6562C72.1569 30.9036 72.4108 31.0827 72.7168 31.1934C73.0293 31.2975 73.3581 31.3496 73.7031 31.3496C74.0938 31.3496 74.4225 31.2975 74.6895 31.1934C74.9564 31.0827 75.1582 30.9362 75.2949 30.7539C75.4316 30.5651 75.5 30.3503 75.5 30.1094Z" fill="white"/>
<path d="M81.7031 74.8242V74.6191C81.7031 73.8444 81.8138 73.1315 82.0352 72.4805C82.2565 71.8229 82.5788 71.2533 83.002 70.7715C83.4251 70.2897 83.9427 69.9154 84.5547 69.6484C85.1667 69.375 85.8633 69.2383 86.6445 69.2383C87.4388 69.2383 88.1419 69.375 88.7539 69.6484C89.3724 69.9154 89.8932 70.2897 90.3164 70.7715C90.7396 71.2533 91.0618 71.8229 91.2832 72.4805C91.5046 73.1315 91.6152 73.8444 91.6152 74.6191V74.8242C91.6152 75.5924 91.5046 76.3053 91.2832 76.9629C91.0618 77.6139 90.7396 78.1836 90.3164 78.6719C89.8932 79.1536 89.3757 79.528 88.7637 79.7949C88.1517 80.0618 87.4518 80.1953 86.6641 80.1953C85.8828 80.1953 85.1829 80.0618 84.5645 79.7949C83.946 79.528 83.4251 79.1536 83.002 78.6719C82.5788 78.1836 82.2565 77.6139 82.0352 76.9629C81.8138 76.3053 81.7031 75.5924 81.7031 74.8242ZM84.2812 74.6191V74.8242C84.2812 75.2865 84.3268 75.7194 84.418 76.123C84.5091 76.5267 84.6491 76.8815 84.8379 77.1875C85.0267 77.4935 85.2708 77.7344 85.5703 77.9102C85.8763 78.0794 86.2409 78.1641 86.6641 78.1641C87.0807 78.1641 87.4388 78.0794 87.7383 77.9102C88.0378 77.7344 88.2819 77.4935 88.4707 77.1875C88.666 76.8815 88.8092 76.5267 88.9004 76.123C88.9915 75.7194 89.0371 75.2865 89.0371 74.8242V74.6191C89.0371 74.1634 88.9915 73.737 88.9004 73.3398C88.8092 72.9362 88.666 72.5814 88.4707 72.2754C88.2819 71.9629 88.0345 71.7188 87.7285 71.543C87.429 71.3607 87.0677 71.2695 86.6445 71.2695C86.2279 71.2695 85.8698 71.3607 85.5703 71.543C85.2708 71.7188 85.0267 71.9629 84.8379 72.2754C84.6491 72.5814 84.5091 72.9362 84.418 73.3398C84.3268 73.737 84.2812 74.1634 84.2812 74.6191ZM96.4297 77.4609L98.7441 69.4336H100.385L99.8965 72.207L97.5625 80H96.1465L96.4297 77.4609ZM95.1504 69.4336L96.8887 77.4805L97.0449 80H95.4141L92.6406 69.4336H95.1504ZM102.533 77.3633L104.232 69.4336H106.732L103.979 80H102.348L102.533 77.3633ZM100.639 69.4336L102.934 77.3828L103.236 80H101.82L99.4668 72.207L98.9883 69.4336H100.639Z" fill="white"/>
<line x1="107.5" y1="65.5" x2="81.5" y2="65.5" stroke="white" stroke-linecap="round"/>
<line x1="78.5" y1="19.5" x2="43.5" y2="19.5" stroke="#B10009" stroke-linecap="round"/>
</svg>
