<svg width="390" height="424" viewBox="0 0 390 424" fill="none" xmlns="http://www.w3.org/2000/svg">
<path d="M109.906 165.5V211H101.281L81.9375 179.438V211H73.3438V165.5H81.9375L101.344 197.094V165.5H109.906Z" fill="white"/>
<path d="M112.094 186.5V232H120.719L140.062 200.438V232H148.656V186.5H140.062L120.656 218.094V186.5H112.094Z" fill="#B10009"/>
<path d="M117.908 185.195C117.107 185.195 116.388 185.065 115.75 184.805C115.112 184.544 114.568 184.183 114.119 183.721C113.676 183.252 113.335 182.708 113.094 182.09C112.859 181.465 112.742 180.794 112.742 180.078V179.688C112.742 178.874 112.859 178.135 113.094 177.471C113.328 176.8 113.66 176.224 114.09 175.742C114.52 175.26 115.034 174.889 115.633 174.629C116.232 174.368 116.893 174.238 117.615 174.238C118.364 174.238 119.025 174.365 119.598 174.619C120.171 174.867 120.649 175.218 121.033 175.674C121.417 176.13 121.707 176.676 121.902 177.314C122.098 177.946 122.195 178.646 122.195 179.414V180.498H113.914V178.721H119.656V178.525C119.643 178.115 119.565 177.741 119.422 177.402C119.279 177.057 119.057 176.784 118.758 176.582C118.458 176.374 118.071 176.27 117.596 176.27C117.212 176.27 116.876 176.354 116.59 176.523C116.31 176.686 116.076 176.921 115.887 177.227C115.704 177.526 115.568 177.884 115.477 178.301C115.385 178.717 115.34 179.18 115.34 179.688V180.078C115.34 180.521 115.398 180.931 115.516 181.309C115.639 181.686 115.818 182.015 116.053 182.295C116.294 182.568 116.58 182.783 116.912 182.939C117.251 183.089 117.635 183.164 118.064 183.164C118.605 183.164 119.093 183.06 119.529 182.852C119.972 182.637 120.356 182.321 120.682 181.904L121.98 183.252C121.759 183.577 121.46 183.89 121.082 184.189C120.711 184.489 120.262 184.733 119.734 184.922C119.207 185.104 118.598 185.195 117.908 185.195ZM126.863 182.461L129.178 174.434H130.818L130.33 177.207L127.996 185H126.58L126.863 182.461ZM125.584 174.434L127.322 182.48L127.479 185H125.848L123.074 174.434H125.584ZM132.967 182.363L134.666 174.434H137.166L134.412 185H132.781L132.967 182.363ZM131.072 174.434L133.367 182.383L133.67 185H132.254L129.9 177.207L129.422 174.434H131.072ZM144.5 182.109C144.5 181.888 144.441 181.689 144.324 181.514C144.207 181.338 143.986 181.178 143.66 181.035C143.341 180.885 142.872 180.745 142.254 180.615C141.707 180.498 141.202 180.352 140.74 180.176C140.278 180 139.881 179.788 139.549 179.541C139.217 179.287 138.956 178.991 138.768 178.652C138.585 178.307 138.494 177.91 138.494 177.461C138.494 177.025 138.589 176.615 138.777 176.23C138.966 175.84 139.24 175.498 139.598 175.205C139.956 174.906 140.392 174.671 140.906 174.502C141.421 174.326 142 174.238 142.645 174.238C143.543 174.238 144.314 174.385 144.959 174.678C145.61 174.971 146.108 175.374 146.453 175.889C146.798 176.396 146.971 176.969 146.971 177.607H144.393C144.393 177.327 144.327 177.074 144.197 176.846C144.074 176.618 143.882 176.436 143.621 176.299C143.361 176.156 143.032 176.084 142.635 176.084C142.277 176.084 141.974 176.143 141.727 176.26C141.486 176.377 141.303 176.53 141.18 176.719C141.056 176.908 140.994 177.116 140.994 177.344C140.994 177.513 141.027 177.666 141.092 177.803C141.163 177.933 141.277 178.053 141.434 178.164C141.59 178.275 141.801 178.376 142.068 178.467C142.342 178.558 142.677 178.646 143.074 178.73C143.862 178.887 144.549 179.095 145.135 179.355C145.727 179.609 146.189 179.948 146.521 180.371C146.854 180.794 147.02 181.335 147.02 181.992C147.02 182.461 146.919 182.891 146.717 183.281C146.515 183.665 146.222 184.001 145.838 184.287C145.454 184.574 144.995 184.798 144.461 184.961C143.927 185.117 143.325 185.195 142.654 185.195C141.684 185.195 140.864 185.023 140.193 184.678C139.523 184.326 139.015 183.883 138.67 183.35C138.325 182.809 138.152 182.249 138.152 181.67H140.623C140.643 182.08 140.753 182.409 140.955 182.656C141.157 182.904 141.411 183.083 141.717 183.193C142.029 183.298 142.358 183.35 142.703 183.35C143.094 183.35 143.423 183.298 143.689 183.193C143.956 183.083 144.158 182.936 144.295 182.754C144.432 182.565 144.5 182.35 144.5 182.109Z" fill="white"/>
<path d="M150.703 226.824V226.619C150.703 225.844 150.814 225.132 151.035 224.48C151.257 223.823 151.579 223.253 152.002 222.771C152.425 222.29 152.943 221.915 153.555 221.648C154.167 221.375 154.863 221.238 155.645 221.238C156.439 221.238 157.142 221.375 157.754 221.648C158.372 221.915 158.893 222.29 159.316 222.771C159.74 223.253 160.062 223.823 160.283 224.48C160.505 225.132 160.615 225.844 160.615 226.619V226.824C160.615 227.592 160.505 228.305 160.283 228.963C160.062 229.614 159.74 230.184 159.316 230.672C158.893 231.154 158.376 231.528 157.764 231.795C157.152 232.062 156.452 232.195 155.664 232.195C154.883 232.195 154.183 232.062 153.564 231.795C152.946 231.528 152.425 231.154 152.002 230.672C151.579 230.184 151.257 229.614 151.035 228.963C150.814 228.305 150.703 227.592 150.703 226.824ZM153.281 226.619V226.824C153.281 227.286 153.327 227.719 153.418 228.123C153.509 228.527 153.649 228.882 153.838 229.188C154.027 229.493 154.271 229.734 154.57 229.91C154.876 230.079 155.241 230.164 155.664 230.164C156.081 230.164 156.439 230.079 156.738 229.91C157.038 229.734 157.282 229.493 157.471 229.188C157.666 228.882 157.809 228.527 157.9 228.123C157.992 227.719 158.037 227.286 158.037 226.824V226.619C158.037 226.163 157.992 225.737 157.9 225.34C157.809 224.936 157.666 224.581 157.471 224.275C157.282 223.963 157.035 223.719 156.729 223.543C156.429 223.361 156.068 223.27 155.645 223.27C155.228 223.27 154.87 223.361 154.57 223.543C154.271 223.719 154.027 223.963 153.838 224.275C153.649 224.581 153.509 224.936 153.418 225.34C153.327 225.737 153.281 226.163 153.281 226.619ZM165.43 229.461L167.744 221.434H169.385L168.896 224.207L166.562 232H165.146L165.43 229.461ZM164.15 221.434L165.889 229.48L166.045 232H164.414L161.641 221.434H164.15ZM171.533 229.363L173.232 221.434H175.732L172.979 232H171.348L171.533 229.363ZM169.639 221.434L171.934 229.383L172.236 232H170.82L168.467 224.207L167.988 221.434H169.639Z" fill="white"/>
<line x1="176.5" y1="217.5" x2="150.5" y2="217.5" stroke="white" stroke-linecap="round"/>
<line x1="147.5" y1="171.5" x2="112.5" y2="171.5" stroke="#B10009" stroke-linecap="round"/>
<path d="M0 417.303C29.2313 427.987 105.582 427.32 177.136 339.178C248.691 251.036 348.86 229 390 229" stroke="#B10009" stroke-width="3"/>
<path d="M0 408.303C29.2313 418.987 105.582 418.32 177.136 330.178C248.691 242.036 348.86 220 390 220" stroke="white" stroke-width="3"/>
<path d="M0 399.303C29.2313 409.987 105.582 409.32 177.136 321.178C248.691 233.036 348.86 211 390 211" stroke="#B10009" stroke-width="3"/>
<path d="M0 388.303C29.2313 398.987 105.582 398.32 177.136 310.178C248.691 222.036 348.86 200 390 200" stroke="#B10009" stroke-width="3"/>
<path d="M0 6.18899C29.2313 -3.33987 105.582 -2.74432 177.136 75.8688C248.691 154.482 348.86 174.135 390 174.135" stroke="#B10009" stroke-width="3"/>
<path d="M0 14.2158C29.2313 4.68698 105.582 5.28254 177.136 83.8957C248.691 162.509 348.86 182.162 390 182.162" stroke="white" stroke-width="3"/>
<path d="M0 22.2429C29.2313 12.7141 105.582 13.3096 177.136 91.9228C248.691 170.536 348.86 190.189 390 190.189" stroke="#B10009" stroke-width="3"/>
<path d="M0 32.0537C29.2313 22.5249 105.582 23.1204 177.136 101.734C248.691 180.347 348.86 200 390 200" stroke="#B10009" stroke-width="3"/>
</svg>
