<svg width="25" height="25" viewBox="0 0 25 25" fill="none" xmlns="http://www.w3.org/2000/svg">
<path fill-rule="evenodd" clip-rule="evenodd" d="M12.5 25C19.4036 25 25 19.4036 25 12.5C25 5.59644 19.4036 0 12.5 0C5.59644 0 0 5.59644 0 12.5C0 19.4036 5.59644 25 12.5 25Z" fill="#B10009"/>
<path fill-rule="evenodd" clip-rule="evenodd" d="M19.75 12.5623C19.75 13.08 19.3303 13.4998 18.8125 13.4998H7.95083L11.9754 17.5243C12.3415 17.8905 12.3415 18.4841 11.9754 18.8502C11.6093 19.2163 11.0157 19.2163 10.6496 18.8502L5.02459 13.2252C4.65847 12.8591 4.65847 12.2655 5.02459 11.8993L10.6496 6.27434C11.0157 5.90823 11.6093 5.90823 11.9754 6.27434C12.3415 6.64046 12.3415 7.23405 11.9754 7.60017L7.95083 11.6248H18.8125C19.3303 11.6248 19.75 12.0445 19.75 12.5623Z" fill="white"/>
</svg>
