<svg width="17" height="16" viewBox="0 0 17 16" fill="none" xmlns="http://www.w3.org/2000/svg">
<path d="M2.70945 2H13.5491C13.9084 2 14.2531 2.14048 14.5072 2.39052C14.7613 2.64057 14.904 2.97971 14.904 3.33333V7.33333C14.904 9.10144 14.1903 10.7971 12.9198 12.0474C11.6492 13.2976 9.92605 14 8.12927 14C7.23959 14 6.35863 13.8276 5.53667 13.4925C4.71472 13.1575 3.96787 12.6664 3.33878 12.0474C2.06826 10.7971 1.35449 9.10144 1.35449 7.33333V3.33333C1.35449 2.97971 1.49725 2.64057 1.75135 2.39052C2.00545 2.14048 2.35009 2 2.70945 2V2Z" stroke="#B10009" stroke-width="2" stroke-linecap="round" stroke-linejoin="round"/>
<path d="M5.41992 6.66675L8.12983 9.33341L10.8397 6.66675" stroke="#B10009" stroke-width="2" stroke-linecap="round" stroke-linejoin="round"/>
</svg>
